<svg width="128" height="128" viewBox="0 0 128 128" xmlns="http://www.w3.org/2000/svg">
  <!-- Gradient background -->
  <defs>
    <linearGradient id="grad1" x1="0%" y1="0%" x2="100%" y2="100%">
      <stop offset="0%" style="stop-color:#667eea;stop-opacity:1" />
      <stop offset="100%" style="stop-color:#764ba2;stop-opacity:1" />
    </linearGradient>
    <linearGradient id="grad2" x1="0%" y1="0%" x2="100%" y2="100%">
      <stop offset="0%" style="stop-color:#f093fb;stop-opacity:1" />
      <stop offset="100%" style="stop-color:#f5576c;stop-opacity:1" />
    </linearGradient>
  </defs>
  
  <!-- Rounded square background -->
  <rect width="128" height="128" rx="24" fill="url(#grad1)"/>
  
  <!-- Video frame -->
  <rect x="20" y="32" width="88" height="56" rx="6" fill="white" opacity="0.3"/>
  <rect x="24" y="36" width="80" height="48" rx="4" fill="#1a1a2e"/>
  
  <!-- Play button circle -->
  <circle cx="64" cy="60" r="20" fill="url(#grad2)"/>
  
  <!-- Play triangle -->
  <path d="M 58 50 L 58 70 L 74 60 Z" fill="white"/>
  
  <!-- GitHub cat ear hint (simplified) -->
  <circle cx="92" cy="96" r="16" fill="white" opacity="0.9"/>
  <path d="M 92 88 Q 84 92 84 100 Q 84 104 88 106 Q 92 108 96 106 Q 100 104 100 100 Q 100 92 92 88 Z" fill="#1a1a2e"/>
  
  <!-- Small play icon on GitHub badge -->
  <path d="M 90 96 L 90 100 L 94 98 Z" fill="url(#grad2)"/>
</svg>
